name ./resultDataOpenSim/trcMotMarkerGrf/sub06/grf-14-08.mot
datacolumns 19
datarows 17
range 1.58000000 1.64400000
endheader

                time	     ground_force_vx	     ground_force_vy	     ground_force_vz	     ground_force_px	     ground_force_py	     ground_force_pz	   l_ground_force_vx	   l_ground_force_vy	   l_ground_force_vz	   l_ground_force_px	   l_ground_force_py	   l_ground_force_pz	     ground_torque_x	     ground_torque_y	     ground_torque_z	   l_ground_torque_x	   l_ground_torque_y	   l_ground_torque_z	
          1.58000000	         98.47300822	        626.10316983	        -11.45953547	          0.89271341	          0.00000000	          0.05301134	          0.00000000	          0.00000000	          0.00000000	          0.00000000	          0.00000000	          0.00000000	          0.00000000	          3.32993485	          0.00000000	          0.00000000	          0.00000000	          0.00000000	
          1.58400000	        103.44894743	        634.30427079	        -12.69661310	          0.89298543	          0.00000000	          0.05280694	          0.00000000	          0.00000000	          0.00000000	          0.00000000	          0.00000000	          0.00000000	          0.00000000	          3.39046272	          0.00000000	          0.00000000	          0.00000000	          0.00000000	
          1.58800000	        108.41231907	        641.83345758	        -13.91857291	          0.89327359	          0.00000000	          0.05262592	          0.00000000	          0.00000000	          0.00000000	          0.00000000	          0.00000000	          0.00000000	          0.00000000	          3.42842081	          0.00000000	          0.00000000	          0.00000000	          0.00000000	
          1.59200000	        113.37173959	        648.65930471	        -15.06363165	          0.89357113	          0.00000000	          0.05245914	          0.00000000	          0.00000000	          0.00000000	          0.00000000	          0.00000000	          0.00000000	          0.00000000	          3.44336146	          0.00000000	          0.00000000	          0.00000000	          0.00000000	
          1.59600000	        118.34726574	        654.73281215	        -16.10126812	          0.89386852	          0.00000000	          0.05230164	          0.00000000	          0.00000000	          0.00000000	          0.00000000	          0.00000000	          0.00000000	          0.00000000	          3.43643349	          0.00000000	          0.00000000	          0.00000000	          0.00000000	
          1.60000000	        123.36547960	        659.97214011	        -17.03413445	          0.89416303	          0.00000000	          0.05215077	          0.00000000	          0.00000000	          0.00000000	          0.00000000	          0.00000000	          0.00000000	          0.00000000	          3.40963856	          0.00000000	          0.00000000	          0.00000000	          0.00000000	
          1.60400000	        128.44825226	        664.25635522	        -17.89028933	          0.89443680	          0.00000000	          0.05200240	          0.00000000	          0.00000000	          0.00000000	          0.00000000	          0.00000000	          0.00000000	          0.00000000	          3.36538268	          0.00000000	          0.00000000	          0.00000000	          0.00000000	
          1.60800000	        133.60383659	        667.43901424	        -18.70798437	          0.89468702	          0.00000000	          0.05185488	          0.00000000	          0.00000000	          0.00000000	          0.00000000	          0.00000000	          0.00000000	          0.00000000	          3.30646375	          0.00000000	          0.00000000	          0.00000000	          0.00000000	
          1.61200000	        138.81845428	        669.36469381	        -19.51925690	          0.89492718	          0.00000000	          0.05170414	          0.00000000	          0.00000000	          0.00000000	          0.00000000	          0.00000000	          0.00000000	          0.00000000	          3.23629356	          0.00000000	          0.00000000	          0.00000000	          0.00000000	
          1.61600000	        144.04887576	        669.87952302	        -20.33999707	          0.89515092	          0.00000000	          0.05154657	          0.00000000	          0.00000000	          0.00000000	          0.00000000	          0.00000000	          0.00000000	          0.00000000	          3.15907936	          0.00000000	          0.00000000	          0.00000000	          0.00000000	
          1.62000000	        149.22338735	        668.84937294	        -21.16581456	          0.89536238	          0.00000000	          0.05137940	          0.00000000	          0.00000000	          0.00000000	          0.00000000	          0.00000000	          0.00000000	          0.00000000	          3.07986346	          0.00000000	          0.00000000	          0.00000000	          0.00000000	
          1.62400000	        154.24971937	        666.17988401	        -21.97136208	          0.89556015	          0.00000000	          0.05119884	          0.00000000	          0.00000000	          0.00000000	          0.00000000	          0.00000000	          0.00000000	          0.00000000	          3.00445039	          0.00000000	          0.00000000	          0.00000000	          0.00000000	
          1.62800000	        159.02846926	        661.82230345	        -22.71197269	          0.89573555	          0.00000000	          0.05100167	          0.00000000	          0.00000000	          0.00000000	          0.00000000	          0.00000000	          0.00000000	          0.00000000	          2.93917692	          0.00000000	          0.00000000	          0.00000000	          0.00000000	
          1.63200000	        163.47292661	        655.76691867	        -23.32539416	          0.89589362	          0.00000000	          0.05078570	          0.00000000	          0.00000000	          0.00000000	          0.00000000	          0.00000000	          0.00000000	          0.00000000	          2.89027796	          0.00000000	          0.00000000	          0.00000000	          0.00000000	
          1.63600000	        167.53931474	        648.02834817	        -23.73399064	          0.89603109	          0.00000000	          0.05054769	          0.00000000	          0.00000000	          0.00000000	          0.00000000	          0.00000000	          0.00000000	          0.00000000	          2.86249236	          0.00000000	          0.00000000	          0.00000000	          0.00000000	
          1.64000000	        171.27262744	        638.61809122	        -23.84783300	          0.89614750	          0.00000000	          0.05028440	          0.00000000	          0.00000000	          0.00000000	          0.00000000	          0.00000000	          0.00000000	          0.00000000	          2.85681284	          0.00000000	          0.00000000	          0.00000000	          0.00000000	
          1.64400000	        174.84366246	        627.50420766	        -23.57767206	          0.89623795	          0.00000000	          0.04999172	          0.00000000	          0.00000000	          0.00000000	          0.00000000	          0.00000000	          0.00000000	          0.00000000	          2.86802985	          0.00000000	          0.00000000	          0.00000000	          0.00000000	
